<svg version="1.1" id="Layer_1" xmlns="http://www.w3.org/2000/svg" xmlns:xlink="http://www.w3.org/1999/xlink" x="0px" y="0px"
	 width="100%" viewBox="0 0 469 532" enable-background="new 0 0 469 532" xml:space="preserve">
<path fill="#000000" opacity="1.000000" stroke="none" 
	d="
M254.000000,533.000000 
	C169.333359,533.000000 85.166710,533.000000 1.000045,533.000000 
	C1.000030,355.666718 1.000030,178.333466 1.000015,1.000140 
	C157.333237,1.000094 313.666473,1.000094 469.999756,1.000047 
	C469.999847,178.333191 469.999847,355.666382 469.999939,532.999756 
	C398.166656,533.000000 326.333344,533.000000 254.000000,533.000000 
M391.862946,268.489990 
	C391.565521,268.332733 391.268066,268.175476 390.805878,267.549927 
	C390.612457,267.254028 390.341156,267.078522 389.883514,266.505035 
	C389.593109,266.324493 389.302734,266.143951 389.002258,266.003510 
	C389.002258,266.003510 389.030792,265.973022 388.816864,265.335388 
	C385.559509,261.871185 382.302155,258.407013 379.012268,254.998627 
	C379.012268,254.998627 379.069824,254.969254 379.067566,254.282608 
	C378.056610,253.177429 377.045685,252.072250 375.996460,250.988159 
	C375.996460,250.988159 376.038086,250.984665 375.891663,250.458313 
	C375.586853,250.277313 375.282043,250.096329 374.915619,249.466980 
	C374.915619,249.466980 374.775879,249.036530 374.850769,248.509888 
	C374.560211,248.337143 374.269653,248.164383 373.979065,248.028976 
	C373.979065,248.028976 374.015503,248.020966 373.838501,247.531998 
	C373.549561,247.358307 373.260620,247.184631 372.900116,246.421677 
	C372.615723,245.966934 372.331329,245.512177 371.796326,244.387634 
	C370.509613,242.213577 369.222900,240.039505 367.855042,237.457428 
	C367.855042,237.457428 367.700012,237.071396 367.704041,236.403046 
	C367.119568,235.544525 366.535095,234.686020 365.899475,233.517029 
	C365.899475,233.517029 365.769073,233.230667 365.874146,232.625320 
	C365.568237,232.383911 365.262329,232.142517 364.884094,231.521469 
	C364.884094,231.521469 364.732117,231.166122 364.892975,230.385620 
	C358.093353,212.529282 354.023956,194.264679 357.037415,175.040237 
	C357.645538,171.160736 358.811340,167.433289 352.982880,167.018173 
	C352.982880,167.018173 353.003174,167.020996 352.675720,166.388397 
	C350.489838,165.584122 348.303925,164.779831 346.112000,163.898895 
	C346.112000,163.898895 346.035217,163.903107 345.729401,163.308121 
	C344.481232,162.867126 343.233093,162.426117 341.983459,162.021149 
	C341.983459,162.021149 342.018250,162.011703 341.678375,161.390503 
	C340.135345,160.896332 338.592285,160.402161 336.682495,159.318710 
	C331.136566,156.540955 326.186646,152.247543 319.007233,152.165421 
	C308.410278,211.572739 323.318817,262.087708 368.991394,302.897858 
	C363.743958,305.293549 358.697693,307.939148 353.409027,309.945679 
	C339.461609,315.237335 325.115845,319.071533 310.078339,318.949554 
	C302.943115,318.891693 295.686584,318.469238 288.714874,317.068054 
	C277.527679,314.819702 266.403717,312.035370 255.501160,308.673004 
	C248.682480,306.570129 249.112411,306.256073 246.875931,313.094940 
	C243.725601,322.728210 239.543350,332.020233 236.102264,341.566284 
	C235.578934,343.018097 236.256180,346.359619 237.080093,346.621887 
	C249.747055,350.654022 262.381714,354.991882 275.333496,357.860748 
	C285.827942,360.185333 296.737305,361.650970 307.460724,361.640015 
	C318.019867,361.629272 328.554016,359.052338 339.139404,358.010284 
	C357.531281,356.199646 373.873993,348.390778 389.944275,340.287689 
	C398.734009,335.855621 406.633484,329.536438 414.572998,323.586029 
	C419.245117,320.084412 424.635162,316.662384 423.111694,309.008942 
	C422.609924,306.488251 423.853394,303.568390 424.500916,300.879761 
	C427.206604,289.645325 427.234741,289.652100 415.994873,285.187378 
	C414.612244,284.540802 413.229614,283.894196 411.469238,283.106232 
	C411.469238,283.106232 411.071838,283.037201 410.785706,282.409210 
	C409.190247,281.593018 407.594788,280.776825 405.989227,280.015686 
	C405.989227,280.015686 406.044067,280.004517 405.877747,279.498383 
	C405.582245,279.320282 405.286743,279.142181 404.979980,279.014008 
	C404.979980,279.014008 405.030304,279.004761 404.785187,278.349792 
	C401.405426,275.962463 398.025635,273.575104 394.422699,271.040436 
	C394.422699,271.040436 394.156097,271.019043 393.934631,270.509064 
	C393.625854,270.327393 393.317078,270.145721 392.995667,270.006500 
	C392.995667,270.006500 393.035767,269.987762 392.911713,269.467621 
	C392.610992,269.304993 392.310242,269.142334 391.998779,269.001892 
	C391.998779,269.001892 392.020081,268.989532 391.862946,268.489990 
M245.993805,215.007660 
	C245.993805,215.007660 246.016281,215.001312 245.856125,214.521469 
	C245.576218,214.353470 245.296326,214.185455 245.022324,213.981689 
	C245.022324,213.981689 244.986328,213.986008 244.776978,213.354324 
	C242.525421,211.216354 240.273865,209.078384 237.811401,206.515976 
	C237.616379,206.244858 237.354568,206.079376 237.005096,205.302399 
	C236.260590,204.604706 235.516083,203.907028 234.200943,202.832535 
	C222.967010,188.093384 214.408371,171.950562 209.494614,152.720078 
	C205.571213,157.210815 202.724472,160.403564 199.949768,163.657761 
	C192.394928,172.518234 184.745438,181.304550 177.472549,190.391647 
	C176.414139,191.714096 176.318192,195.147064 177.293381,196.547058 
	C185.898285,208.900162 191.249344,222.856003 194.592514,237.134766 
	C197.134232,247.990585 196.675293,259.704559 196.450653,271.014832 
	C196.139008,286.706207 191.683609,301.554108 184.837524,315.671173 
	C183.653580,318.112549 182.252594,319.066315 180.074707,316.726807 
	C179.284683,315.878174 178.525696,315.000671 177.849411,313.596924 
	C177.570541,313.393524 177.291672,313.190155 177.000000,312.998779 
	C177.000000,312.998779 177.010803,312.982941 176.804077,312.373169 
	C175.533966,311.239807 174.263870,310.106445 172.985794,309.016815 
	C172.985794,309.016815 173.028671,309.005035 172.953018,308.330902 
	C171.971939,307.208313 170.990875,306.085693 169.996674,305.009674 
	C169.996674,305.009674 170.042007,304.992737 169.959381,304.288300 
	C168.626434,302.479218 167.293472,300.670105 165.742935,298.378601 
	C165.417862,297.966827 165.092804,297.555084 164.842667,296.581696 
	C164.550354,296.370575 164.258057,296.159424 163.877258,295.374207 
	C163.593155,294.927185 163.309052,294.480133 162.885651,293.510803 
	C162.585648,293.335236 162.285645,293.159637 161.981705,293.019135 
	C161.981705,293.019135 162.016373,293.012512 161.950302,292.324005 
	C161.316406,291.207550 160.682510,290.091064 160.015137,288.994019 
	C160.015137,288.994019 160.034912,288.962067 159.972610,288.208466 
	C159.524338,286.833710 159.311615,285.319183 158.591614,284.105652 
	C150.752014,270.892761 147.533127,256.214172 147.244919,241.266144 
	C146.986755,227.876022 149.059433,214.440964 150.729584,200.641739 
	C152.364166,196.045700 153.833572,191.382675 155.665588,186.866745 
	C160.354248,175.309219 166.717056,164.767838 174.843491,155.248764 
	C181.972626,146.897888 189.716248,139.326050 199.059906,133.448288 
	C203.814117,130.457581 208.390060,127.183510 213.000809,124.003059 
	C213.000809,124.003059 213.020432,124.056900 213.801758,123.996124 
	C215.881104,123.176949 217.910416,122.184067 220.048309,121.568092 
	C230.342072,118.602234 240.665115,115.738022 251.901184,112.986320 
	C264.262634,113.272575 276.624115,113.558838 289.770966,113.962227 
	C297.740417,116.626076 305.880981,118.871819 313.640961,122.047516 
	C326.696655,127.390411 338.347626,135.132355 348.507538,144.944534 
	C360.823090,156.838547 370.741974,170.418228 377.234467,186.407730 
	C381.174774,196.111801 384.512848,205.912582 385.126953,216.474945 
	C385.567322,224.048508 386.138397,231.614471 386.683899,239.667084 
	C400.979279,242.758850 415.548004,245.909744 430.526978,249.149353 
	C432.556366,239.014145 432.501129,229.233948 431.103363,219.400665 
	C430.323914,213.917206 429.831299,208.387375 428.880402,202.935837 
	C428.232910,199.223755 427.015625,195.611069 426.016449,191.126022 
	C423.691254,184.085922 421.366058,177.045822 419.049438,169.960587 
	C419.049438,169.960587 419.003510,169.958984 418.984863,169.202805 
	C416.659454,164.462418 414.334045,159.722015 411.998505,155.005417 
	C411.998505,155.005417 412.022858,154.995163 411.954865,154.267075 
	C406.293365,145.847366 400.631897,137.427673 394.988129,129.007080 
	C394.988129,129.007080 394.983887,129.023712 394.875824,128.501404 
	C394.582947,128.318924 394.290070,128.136429 393.984863,128.013016 
	C393.984863,128.013016 394.045044,128.008820 393.901031,127.456978 
	C393.593964,127.242867 393.286896,127.028755 392.978027,126.569191 
	C392.978027,126.569191 392.854492,126.357063 392.955505,125.722870 
	C392.649994,125.476509 392.344513,125.230148 392.022766,124.979187 
	C392.022766,124.979187 392.014984,124.964424 391.871887,124.472389 
	C391.584198,124.310516 391.296478,124.148643 391.000000,124.000305 
	C391.000000,124.000305 391.013062,123.991280 390.878510,123.487183 
	C390.587036,123.320366 390.295532,123.153549 389.998108,123.002068 
	C389.998108,123.002068 390.013367,122.995804 389.879852,122.494270 
	C389.591919,122.323608 389.304016,122.152939 389.000000,121.998482 
	C389.000000,121.998482 389.014587,121.977676 388.813782,121.336555 
	C385.215820,117.884888 381.617859,114.433228 377.998779,110.999474 
	C377.998779,110.999474 378.023102,110.988258 377.906555,110.469955 
	C377.609100,110.304199 377.311676,110.138443 376.998108,110.002068 
	C376.998108,110.002068 377.027161,109.985374 376.907654,109.470551 
	C376.610168,109.311523 376.312683,109.152496 376.003662,108.996307 
	C376.003662,108.996307 376.004700,108.984764 375.856842,108.497101 
	C375.570770,108.336510 375.284729,108.175919 375.002625,107.997658 
	C375.002625,107.997658 374.987061,108.005821 374.769989,107.383629 
	C373.850525,106.904633 372.931091,106.425636 371.994598,106.002846 
	C371.994598,106.002846 372.052979,105.996597 371.916595,105.467682 
	C371.610382,105.296814 371.304169,105.125946 370.989014,105.012062 
	C370.989014,105.012062 371.045502,105.000427 370.893799,104.483055 
	C370.591919,104.311562 370.290009,104.140068 369.981079,104.021027 
	C369.981079,104.021027 370.032684,104.009254 369.867310,103.507355 
	C369.568146,103.348442 369.268982,103.189529 368.996155,103.010246 
	C368.996155,103.010246 368.981598,103.041397 368.664062,102.435226 
	C366.437347,100.948555 364.210663,99.461884 361.978546,98.026558 
	C361.978546,98.026558 362.028870,98.015083 361.748779,97.377159 
	C358.825775,95.581985 355.902802,93.786819 352.978088,92.023918 
	C352.978088,92.023918 353.010284,92.021156 352.714447,91.381760 
	C350.486633,90.229195 348.258820,89.076622 346.002197,87.978035 
	C346.002197,87.978035 346.063385,87.976692 345.970886,87.434265 
	C345.660278,87.278404 345.349640,87.122543 345.009277,86.988441 
	C345.009277,86.988441 345.024353,86.954842 344.838745,86.428879 
	C344.497650,86.370918 344.156586,86.312965 343.451263,86.113556 
	C343.451263,86.113556 343.064209,86.059982 342.753540,85.384422 
	C338.439484,83.669395 334.125427,81.954361 329.464539,80.092651 
	C329.464539,80.092651 329.092163,80.036530 328.780609,79.349815 
	C324.168671,77.967659 319.556732,76.585503 314.285339,74.864044 
	C311.288055,73.616508 308.391388,71.726921 305.275116,71.238472 
	C294.759216,69.590195 284.197235,67.841217 273.591827,67.275459 
	C263.981903,66.762794 254.185715,66.976746 244.667755,68.290703 
	C235.310104,69.582527 226.199081,72.660995 216.184311,75.001755 
	C213.437180,75.998360 210.690063,76.994957 208.011581,77.995361 
	C208.011581,77.995361 208.011581,77.926613 207.224182,78.024101 
	C200.855881,80.692673 194.122162,82.734482 188.208374,86.182579 
	C180.143021,90.885162 172.702637,96.659637 164.988602,101.986610 
	C164.988602,101.986610 164.976593,101.992012 164.256485,102.029716 
	C161.867523,103.810753 159.195847,105.317177 157.146072,107.427650 
	C152.261383,112.457016 147.670425,117.771667 143.001572,122.997528 
	C143.001572,122.997528 142.965942,122.962730 142.248688,122.987434 
	C137.741165,128.615509 132.942322,134.040451 128.827438,139.942291 
	C126.036812,143.944824 124.206627,148.616989 121.998535,153.005508 
	C121.998535,153.005508 121.979477,152.954987 121.314537,153.194168 
	C118.017654,160.142029 113.894875,166.830902 111.616142,174.098007 
	C108.138847,185.187408 105.936279,196.676529 102.813942,208.759430 
	C102.221626,214.241119 101.194092,219.718735 101.142578,225.205505 
	C101.071526,232.774033 101.311302,240.399643 102.195953,247.909149 
	C103.277802,257.092590 104.758041,266.273102 106.795746,275.289978 
	C110.137299,290.076416 116.475174,303.761566 124.044464,316.810883 
	C127.164490,322.189758 131.297241,326.981171 134.995804,331.996338 
	C134.995804,331.996338 134.953949,332.026093 134.980148,332.742157 
	C136.051727,334.334930 136.910141,336.137024 138.232498,337.483521 
	C143.393433,342.738525 148.701233,347.849243 153.965317,353.029419 
	C153.965317,353.029419 153.978745,353.043121 153.996948,353.761322 
	C155.928604,355.611084 157.690765,357.691101 159.826736,359.263275 
	C164.447144,362.664001 169.259109,365.804504 174.006424,368.998444 
	C174.006424,368.998444 173.954147,369.014679 174.209686,369.663116 
	C176.801315,371.121704 179.392944,372.580261 182.004898,374.000763 
	C182.004898,374.000763 181.967010,374.020996 182.179535,374.690186 
	C185.868103,376.868042 189.556671,379.045929 193.443481,381.340851 
	C197.628952,376.691925 201.869522,372.704437 205.230225,368.077850 
	C210.146667,361.309509 214.432190,354.082855 219.061874,347.052002 
	C219.061874,347.052002 219.063309,346.976746 219.697571,346.725067 
	C221.143845,343.818329 222.590118,340.911591 223.997726,337.990631 
	C223.997726,337.990631 224.013046,338.028839 224.598114,337.812469 
	C224.760971,337.221741 224.923828,336.631012 225.733505,335.727142 
	C229.094711,326.170349 232.455933,316.613556 235.960510,306.588318 
	C235.960510,306.588318 236.016907,306.101715 236.664993,305.694366 
	C238.871231,293.405212 241.077469,281.116028 243.333694,268.548370 
	C256.902679,277.069061 272.474487,282.722137 288.544434,286.816193 
	C304.995941,291.007538 321.829132,291.703918 339.876160,290.622467 
	C337.498413,287.519928 335.769562,285.264130 334.043579,282.954559 
	C334.043579,282.954559 333.990326,282.962494 333.757751,282.324554 
	C332.505188,280.550781 331.252625,278.777008 330.000000,277.000000 
	C330.000000,277.000000 329.997101,276.999634 329.959839,276.261078 
	C325.972076,268.798431 321.984344,261.335754 317.912537,253.525452 
	C317.912537,253.525452 317.738708,253.212860 317.855225,252.474335 
	C316.900635,250.650818 315.946045,248.827286 314.998779,247.000610 
	C314.998779,247.000610 314.995697,247.008545 314.692902,246.271591 
	C311.770752,245.915985 308.848602,245.560379 305.510468,245.058594 
	C305.510468,245.058594 305.074890,244.990173 304.807159,244.418961 
	C304.212311,244.350922 303.617493,244.282883 302.372925,244.090225 
	C301.932922,244.060577 301.492889,244.030914 300.774933,243.435669 
	C297.921906,242.537598 295.044922,241.708618 292.220734,240.727493 
	C285.803040,238.497986 279.411316,236.193741 273.004242,233.981995 
	C273.004242,233.981995 273.062897,233.960922 272.776947,233.323288 
	C270.195618,231.879562 267.614288,230.435837 265.028656,228.967255 
	C265.028656,228.967255 265.003967,228.962051 264.789825,228.306091 
	C263.193359,227.545334 261.596924,226.784561 260.008911,225.992447 
	C260.008911,225.992447 259.978027,226.002457 259.775818,225.397659 
	C258.857361,224.944702 257.938873,224.491760 257.029846,223.979156 
	C257.029846,223.979156 256.969604,223.983170 256.786011,223.359344 
	C255.861435,222.887650 254.936874,222.415955 253.999680,222.003540 
	C253.999680,222.003540 254.059677,221.995056 253.892288,221.487000 
	C253.590744,221.323105 253.289200,221.159195 252.991913,221.010284 
	C252.991913,221.010284 253.007477,221.010330 252.747406,220.420959 
	C251.835510,219.929642 250.923615,219.438324 249.998749,219.005829 
	C249.998749,219.005829 250.058426,218.997681 249.885056,218.490540 
	C249.590012,218.305710 249.294968,218.120880 248.791763,217.408676 
	C248.213043,216.941132 247.634308,216.473587 246.885452,215.502731 
	C246.589523,215.330032 246.293579,215.157349 245.993805,215.007660 
z"/>
<path fill="#035CFC" opacity="1.000000" stroke="none" 
	d="
M426.053162,191.953934 
	C427.015625,195.611069 428.232910,199.223755 428.880402,202.935837 
	C429.831299,208.387375 430.323914,213.917206 431.103363,219.400665 
	C432.501129,229.233948 432.556366,239.014145 430.526978,249.149353 
	C415.548004,245.909744 400.979279,242.758850 386.683899,239.667084 
	C386.138397,231.614471 385.567322,224.048508 385.126953,216.474945 
	C384.512848,205.912582 381.174774,196.111801 377.234467,186.407730 
	C370.741974,170.418228 360.823090,156.838547 348.507538,144.944534 
	C338.347626,135.132355 326.696655,127.390411 313.640961,122.047516 
	C305.880981,118.871819 297.740417,116.626076 289.173279,113.601982 
	C283.794952,112.267311 279.020569,110.531303 274.232269,110.491920 
	C266.503906,110.428345 258.766357,111.481934 250.582031,112.051498 
	C239.652695,111.439728 230.367218,115.969955 220.794586,119.090607 
	C217.964310,120.013260 215.598877,122.361778 213.020432,124.056900 
	C213.020432,124.056900 213.000809,124.003059 212.613968,123.991089 
	C210.317154,124.406387 208.141296,124.383080 206.537552,125.329361 
	C186.404282,137.208847 171.101288,153.916672 158.930298,173.648331 
	C157.003448,176.772110 155.333557,180.124054 154.051712,183.559616 
	C152.149078,188.658966 150.698914,193.927124 148.843781,199.449860 
	C147.856766,204.168945 146.984634,208.547180 146.331680,212.957870 
	C145.482986,218.690582 144.123108,224.456619 144.186005,230.195129 
	C144.384140,248.273727 148.357956,265.687164 155.137741,282.416107 
	C156.127579,284.858490 158.371353,286.792725 160.034912,288.962067 
	C160.034912,288.962067 160.015137,288.994019 160.011749,289.340820 
	C160.677704,290.795959 161.347031,291.904236 162.016357,293.012512 
	C162.016373,293.012512 161.981705,293.019135 162.114716,293.215149 
	C162.506790,293.618469 162.765869,293.825775 163.024948,294.033112 
	C163.309052,294.480133 163.593155,294.927185 164.013580,295.886047 
	C164.310455,296.683960 164.516403,296.932434 164.767746,297.143311 
	C165.092804,297.555084 165.417862,297.966827 165.875427,298.994690 
	C167.352615,301.404785 168.697311,303.198761 170.042007,304.992737 
	C170.042007,304.992737 169.996674,305.009674 170.013855,305.353943 
	C171.030243,306.800476 172.029465,307.902771 173.028671,309.005035 
	C173.028671,309.005035 172.985794,309.016815 173.020905,309.355804 
	C174.374283,310.790833 175.692535,311.886902 177.010803,312.982941 
	C177.010803,312.982941 177.000000,312.998779 177.088303,313.208099 
	C177.325714,313.691406 177.517685,313.931061 177.752548,314.136322 
	C178.525696,315.000671 179.284683,315.878174 180.074707,316.726807 
	C182.252594,319.066315 183.653580,318.112549 184.837524,315.671173 
	C191.683609,301.554108 196.139008,286.706207 196.450653,271.014832 
	C196.675293,259.704559 197.134232,247.990585 194.592514,237.134766 
	C191.249344,222.856003 185.898285,208.900162 177.293381,196.547058 
	C176.318192,195.147064 176.414139,191.714096 177.472549,190.391647 
	C184.745438,181.304550 192.394928,172.518234 199.949768,163.657761 
	C202.724472,160.403564 205.571213,157.210815 209.494614,152.720078 
	C214.408371,171.950562 222.967010,188.093384 234.567352,203.332306 
	C235.631165,204.561218 236.328583,205.290375 237.026001,206.019531 
	C237.354568,206.079376 237.616379,206.244858 237.933960,207.086731 
	C240.366455,209.766998 242.676392,211.876495 244.986328,213.986008 
	C244.986328,213.986008 245.022324,213.981689 245.145050,214.201660 
	C245.472504,214.672638 245.722000,214.865875 246.016281,215.001312 
	C246.016281,215.001312 245.993805,215.007660 246.138184,215.199203 
	C246.501617,215.644363 246.759293,215.849472 247.055588,216.006042 
	C247.634308,216.473587 248.213043,216.941132 249.038742,217.880844 
	C249.543289,218.567902 249.800858,218.782791 250.058426,218.997681 
	C250.058426,218.997681 249.998749,219.005829 250.128998,219.279602 
	C251.175323,220.039017 252.091400,220.524673 253.007477,221.010330 
	C253.007477,221.010330 252.991913,221.010284 253.137421,221.200714 
	C253.505768,221.638870 253.764679,221.840179 254.059677,221.995056 
	C254.059677,221.995056 253.999680,222.003540 254.125183,222.277008 
	C255.156982,223.028046 256.063293,223.505600 256.969604,223.983154 
	C256.969604,223.983170 257.029846,223.979156 257.132202,224.311035 
	C258.149078,225.096100 259.063538,225.549286 259.978027,226.002472 
	C259.978027,226.002457 260.008911,225.992447 260.122131,226.326614 
	C261.824860,227.427872 263.414429,228.194962 265.003967,228.962051 
	C265.003967,228.962051 265.028656,228.967255 265.104492,229.317535 
	C267.807831,231.098862 270.435364,232.529892 273.062897,233.960922 
	C273.062897,233.960922 273.004242,233.981995 273.196350,234.240417 
	C281.808502,239.999451 290.934998,243.443466 301.052887,244.001251 
	C301.492889,244.030914 301.932922,244.060577 302.931030,244.302902 
	C304.017731,244.673782 304.546295,244.831985 305.074890,244.990173 
	C305.074890,244.990173 305.510468,245.058594 305.893616,245.408310 
	C309.183105,246.174866 312.089386,246.591705 314.995697,247.008545 
	C314.995697,247.008545 314.998779,247.000610 314.956970,247.338104 
	C314.582214,250.171066 314.373413,252.603210 317.738708,253.212860 
	C317.738708,253.212860 317.912537,253.525452 317.950226,254.102081 
	C320.167877,263.099884 323.804535,270.737335 329.997101,276.999634 
	C329.997101,276.999634 330.000000,277.000000 329.992340,277.396790 
	C329.988647,280.548157 330.490326,282.917084 333.990326,282.962494 
	C333.990326,282.962494 334.043579,282.954559 334.017914,283.362122 
	C334.266785,285.652863 334.541321,287.536072 334.863983,289.749512 
	C332.845001,289.839325 331.201416,290.034882 329.568970,289.966187 
	C311.909210,289.222778 294.563782,286.617065 277.600311,281.492828 
	C274.297760,280.495209 271.494751,279.804871 273.053375,275.430237 
	C269.873474,275.710999 266.835541,276.874695 264.580322,276.006073 
	C258.457245,273.647675 252.611847,270.532898 246.760361,267.516296 
	C242.205231,265.167969 240.438339,266.120026 239.994461,271.204346 
	C239.376160,278.286499 238.564621,285.352722 237.764938,292.417725 
	C237.247803,296.986481 236.603973,301.540894 236.016907,306.101715 
	C236.016907,306.101715 235.960510,306.588318 235.607239,306.976074 
	C234.273560,308.957977 233.293137,310.552124 232.104172,312.485352 
	C231.224503,310.972290 230.623550,309.938660 230.022598,308.904999 
	C228.845428,310.538330 228.085144,312.561951 228.772141,313.402008 
	C231.995590,317.343872 229.959579,320.857513 228.489075,324.525269 
	C226.960297,328.338318 225.498077,332.178070 223.993378,336.343140 
	C223.991013,337.129700 224.002029,337.579254 224.013046,338.028839 
	C224.013046,338.028839 223.997726,337.990631 223.685822,338.089294 
	C221.937073,341.117554 220.500198,344.047150 219.063324,346.976746 
	C219.063309,346.976746 219.061874,347.052002 218.712143,347.158325 
	C217.326050,348.324799 216.154251,349.283875 215.275513,350.461639 
	C209.930420,357.625854 204.944962,365.080963 199.271942,371.971771 
	C193.160645,379.395020 192.415359,379.283813 186.240326,375.039001 
	C185.114578,374.265167 183.406342,374.338684 181.967010,374.020996 
	C181.967010,374.020996 182.004898,374.000763 181.915009,373.677246 
	C179.201462,371.907410 176.577805,370.461029 173.954147,369.014679 
	C173.954147,369.014679 174.006424,368.998444 173.938034,368.687714 
	C171.520920,366.147430 169.355728,363.672882 166.781509,361.744263 
	C162.656418,358.653717 158.260315,355.924866 153.978729,353.043121 
	C153.978745,353.043121 153.965317,353.029419 153.990967,352.652283 
	C153.698563,351.357208 153.621674,350.223785 153.024414,349.555328 
	C148.109985,344.055023 143.141373,338.600800 138.067535,333.247925 
	C137.373032,332.515198 136.008347,332.417694 134.953949,332.026093 
	C134.953949,332.026093 134.995804,331.996338 135.002396,331.638245 
	C134.852814,330.470123 134.925293,329.509674 134.506134,328.872681 
	C128.283569,319.416748 122.954941,309.555664 117.849991,299.400421 
	C112.897476,289.548340 110.967865,279.094421 107.245010,269.080933 
	C105.534561,264.480286 104.900368,259.380188 104.416565,254.443985 
	C103.481789,244.906342 102.656067,235.331451 102.456963,225.758026 
	C102.334030,219.847351 103.451599,213.910889 104.151169,207.636688 
	C108.773346,193.174240 113.228302,179.051987 117.757751,164.953690 
	C119.054161,160.918518 120.566269,156.952637 121.979477,152.954987 
	C121.979477,152.954987 121.998535,153.005508 122.292168,152.888702 
	C123.342918,151.928162 124.200783,151.154175 124.841003,150.229507 
	C129.414169,143.624451 133.977905,137.012238 138.467239,130.350128 
	C140.076706,127.961723 141.472595,125.429390 142.965942,122.962738 
	C142.965942,122.962730 143.001572,122.997528 143.325653,122.925514 
	C149.350388,117.786301 155.124817,112.798370 160.707214,107.604050 
	C162.402878,106.026268 163.568314,103.878647 164.976593,101.992020 
	C164.976593,101.992012 164.988602,101.986610 165.376526,101.999115 
	C167.812378,101.058113 169.944305,100.250191 171.893616,99.125740 
	C180.023651,94.435921 188.100601,89.654060 196.193253,84.899498 
	C200.136978,82.582497 204.072388,80.251350 208.011581,77.926605 
	C208.011581,77.926613 208.011581,77.995361 208.390610,78.002846 
	C211.506378,76.992043 214.243103,75.973763 216.979843,74.955475 
	C226.199081,72.660995 235.310104,69.582527 244.667755,68.290703 
	C254.185715,66.976746 263.981903,66.762794 273.591827,67.275459 
	C284.197235,67.841217 294.759216,69.590195 305.275116,71.238472 
	C308.391388,71.726921 311.288055,73.616508 314.808350,75.323624 
	C319.918304,77.200974 324.505249,78.618752 329.092163,80.036530 
	C329.092163,80.036530 329.464539,80.092651 329.805786,80.454056 
	C333.577362,84.719734 337.397461,87.663986 343.064209,86.059982 
	C343.064209,86.059982 343.451263,86.113556 343.803589,86.352615 
	C344.411591,86.793617 344.701080,86.914673 345.024353,86.954842 
	C345.024353,86.954842 345.009277,86.988441 345.139587,87.196243 
	C345.477692,87.673500 345.742188,87.864388 346.063385,87.976692 
	C346.063385,87.976692 346.002197,87.978035 346.113281,88.270767 
	C347.517639,91.617142 349.614594,93.093597 353.010284,92.021156 
	C353.010284,92.021156 352.978088,92.023918 353.061249,92.341789 
	C356.105896,94.444801 359.067383,96.229942 362.028870,98.015083 
	C362.028870,98.015083 361.978546,98.026558 362.018188,98.366005 
	C362.911072,102.473656 365.868591,102.881676 368.981598,103.041397 
	C368.981598,103.041397 368.996155,103.010246 369.115997,103.227585 
	C369.452515,103.702148 369.718140,103.890259 370.032684,104.009254 
	C370.032684,104.009254 369.981079,104.021027 370.112793,104.211945 
	C370.511505,104.602051 370.778503,104.801239 371.045502,105.000427 
	C371.045502,105.000427 370.989014,105.012062 371.119080,105.203796 
	C371.517090,105.595879 371.785034,105.796242 372.052979,105.996597 
	C372.052979,105.996597 371.994598,106.002846 372.115601,106.282234 
	C373.153412,107.043022 374.070221,107.524429 374.987061,108.005829 
	C374.987061,108.005821 375.002625,107.997658 375.108368,108.223495 
	C375.415466,108.719589 375.678986,108.898064 376.004700,108.984764 
	C376.004700,108.984764 376.003662,108.996307 376.117493,109.215179 
	C376.435089,109.706657 376.700348,109.890434 377.027161,109.985374 
	C377.027161,109.985374 376.998108,110.002068 377.113831,110.210503 
	C377.429749,110.698380 377.694275,110.888153 378.023102,110.988258 
	C378.023102,110.988258 377.998779,110.999474 378.016724,111.349701 
	C380.339233,116.573853 383.531647,120.499252 389.014587,121.977676 
	C389.014587,121.977676 389.000000,121.998482 389.113220,122.212914 
	C389.425476,122.704399 389.687805,122.893890 390.013367,122.995804 
	C390.013367,122.995804 389.998108,123.002068 390.113892,123.212036 
	C390.431396,123.693489 390.692535,123.883247 391.013062,123.991280 
	C391.013062,123.991280 391.000000,124.000305 391.108887,124.214478 
	C391.416595,124.706795 391.682312,124.885384 392.014984,124.964424 
	C392.014984,124.964424 392.022766,124.979187 392.099213,125.244751 
	C392.401947,125.792564 392.628204,126.074814 392.854492,126.357063 
	C392.854492,126.357063 392.978027,126.569191 393.104584,126.934341 
	C393.502441,127.535934 393.773743,127.772377 394.045044,128.008820 
	C394.045044,128.008820 393.984863,128.013016 394.105957,128.203842 
	C394.423065,128.672043 394.675323,128.881729 394.983887,129.023712 
	C394.983887,129.023712 394.988129,129.007080 394.975250,129.386703 
	C396.977173,133.126907 398.829834,136.598877 401.043945,139.822586 
	C404.577209,144.966904 408.350830,149.946136 412.022858,154.995178 
	C412.022858,154.995163 411.998505,155.005417 411.976013,155.402298 
	C410.542480,162.391678 415.421967,165.852219 419.003510,169.958984 
	C419.003510,169.958984 419.049438,169.960587 419.031738,170.398132 
	C420.538696,178.148972 420.434387,186.005249 426.053162,191.953934 
M171.205399,149.007523 
	C167.465515,148.997955 166.597107,150.700455 168.810089,154.256989 
	C169.874405,152.505539 170.938721,150.754089 172.606033,148.830383 
	C173.320724,148.073257 174.035431,147.316147 174.750122,146.559021 
	C174.347549,146.288742 173.944962,146.018478 173.542389,145.748215 
	C173.027374,146.831116 172.512360,147.914032 171.205399,149.007523 
M291.563751,282.551788 
	C291.178589,281.841370 290.793427,281.130981 290.408264,280.420563 
	C289.922363,280.774078 289.436462,281.127594 288.950592,281.481110 
	C289.648163,281.902527 290.345764,282.323975 291.563751,282.551788 
M125.480919,155.581390 
	C125.861717,155.332443 126.242523,155.083496 126.623322,154.834564 
	C126.433167,154.601120 126.243011,154.367676 126.052864,154.134216 
	C125.815453,154.485077 125.578041,154.835922 125.480919,155.581390 
M168.173401,309.967010 
	C167.967575,310.232849 167.755615,310.494629 167.570526,310.774170 
	C167.558914,310.791687 167.757477,310.948303 167.858246,311.040222 
	C168.045151,310.758759 168.232071,310.477325 168.173401,309.967010 
M188.224197,371.946320 
	C188.104660,372.029083 187.985123,372.111877 187.865601,372.194672 
	C187.982132,372.171692 188.098679,372.148743 188.224197,371.946320 
M234.787613,292.870605 
	C234.943237,292.899811 235.098877,292.928986 235.254517,292.958160 
	C235.147125,292.885864 235.039719,292.813599 234.787613,292.870605 
M226.340591,319.668274 
	C226.411453,319.533142 226.482315,319.398041 226.553207,319.262939 
	C226.465485,319.339630 226.377747,319.416351 226.340591,319.668274 
z"/>
<path fill="#055CFB" opacity="1.000000" stroke="none" 
	d="
M372.046967,245.057419 
	C372.331329,245.512177 372.615723,245.966934 373.071228,246.922241 
	C373.453766,247.682037 373.711487,247.881424 374.015503,248.020966 
	C374.015503,248.020966 373.979065,248.028976 374.082275,248.205612 
	C374.352905,248.626862 374.549713,248.844955 374.775879,249.036530 
	C374.775879,249.036530 374.915619,249.466980 375.075775,249.913727 
	C375.503326,250.568527 375.770691,250.776596 376.038086,250.984665 
	C376.038086,250.984665 375.996460,250.988159 376.019043,251.330872 
	C377.051025,252.772125 378.060425,253.870682 379.069824,254.969238 
	C379.069824,254.969254 379.012268,254.998627 379.022400,255.354401 
	C379.906769,261.526245 383.677948,264.520081 389.030792,265.973022 
	C389.030792,265.973022 389.002258,266.003510 389.119812,266.202759 
	C389.435822,266.673584 389.687378,266.880707 389.992004,267.023407 
	C390.341156,267.078522 390.612457,267.254028 391.016205,267.992920 
	C391.436432,268.698730 391.700928,268.883270 392.020081,268.989532 
	C392.020081,268.989532 391.998779,269.001892 392.122192,269.207703 
	C392.451996,269.683350 392.715363,269.874786 393.035767,269.987762 
	C393.035767,269.987762 392.995667,270.006500 393.144653,270.209198 
	C393.581116,270.614288 393.868591,270.816650 394.156097,271.019043 
	C394.156097,271.019043 394.422699,271.040436 394.635773,271.461426 
	C396.415436,276.868530 400.317047,278.516785 405.030304,279.004761 
	C405.030304,279.004761 404.979980,279.014008 405.123199,279.198303 
	C405.525635,279.589874 405.784851,279.797211 406.044067,280.004517 
	C406.044067,280.004517 405.989227,280.015686 406.066895,280.247131 
	C406.144531,282.059113 406.144531,283.639648 406.144531,285.959167 
	C407.924011,284.903900 409.497925,283.970551 411.071838,283.037201 
	C411.071838,283.037201 411.469238,283.106232 411.798584,283.479462 
	C413.408875,284.544983 414.689819,285.237274 415.970764,285.929596 
	C427.234741,289.652100 427.206604,289.645325 424.500916,300.879761 
	C423.853394,303.568390 422.609924,306.488251 423.111694,309.008942 
	C424.635162,316.662384 419.245117,320.084412 414.572998,323.586029 
	C406.633484,329.536438 398.734009,335.855621 389.944275,340.287689 
	C373.873993,348.390778 357.531281,356.199646 339.139404,358.010284 
	C328.554016,359.052338 318.019867,361.629272 307.460724,361.640015 
	C296.737305,361.650970 285.827942,360.185333 275.333496,357.860748 
	C262.381714,354.991882 249.747055,350.654022 237.080093,346.621887 
	C236.256180,346.359619 235.578934,343.018097 236.102264,341.566284 
	C239.543350,332.020233 243.725601,322.728210 246.875931,313.094940 
	C249.112411,306.256073 248.682480,306.570129 255.501160,308.673004 
	C266.403717,312.035370 277.527679,314.819702 288.714874,317.068054 
	C295.686584,318.469238 302.943115,318.891693 310.078339,318.949554 
	C325.115845,319.071533 339.461609,315.237335 353.409027,309.945679 
	C358.697693,307.939148 363.743958,305.293549 368.991394,302.897858 
	C323.318817,262.087708 308.410278,211.572739 319.007233,152.165421 
	C326.186646,152.247543 331.136566,156.540955 337.107971,159.854645 
	C339.028381,160.930954 340.523315,161.471329 342.018250,162.011703 
	C342.018250,162.011703 341.983459,162.021149 342.131897,162.314209 
	C343.531982,163.039215 344.783600,163.471161 346.035217,163.903107 
	C346.035217,163.903107 346.112000,163.898895 346.287018,164.232895 
	C348.642426,165.384933 350.822784,166.202957 353.003174,167.020996 
	C353.003174,167.020996 352.982880,167.018173 353.073730,167.340576 
	C355.406921,170.484039 355.840515,173.514175 354.637360,176.956757 
	C354.104919,178.480301 353.939636,180.263855 354.105042,181.878448 
	C355.271088,193.262085 356.037872,204.727295 358.052979,215.965485 
	C359.002594,221.261292 362.428375,226.113113 364.732117,231.166122 
	C364.732117,231.166122 364.884094,231.521469 365.005371,231.961182 
	C365.340790,232.677490 365.554932,232.954086 365.769073,233.230667 
	C365.769073,233.230667 365.899475,233.517029 365.935791,234.003510 
	C366.548065,235.350449 367.124054,236.210922 367.700012,237.071396 
	C367.700012,237.071396 367.855042,237.457428 367.902283,238.065063 
	C368.467743,241.344894 368.251984,244.488113 372.046967,245.057419 
z"/>
<path fill="#195CEA" opacity="1.000000" stroke="none" 
	d="
M236.340942,305.898041 
	C236.603973,301.540894 237.247803,296.986481 237.764938,292.417725 
	C238.564621,285.352722 239.376160,278.286499 239.994461,271.204346 
	C240.438339,266.120026 242.205231,265.167969 246.760361,267.516296 
	C252.611847,270.532898 258.457245,273.647675 264.580322,276.006073 
	C266.835541,276.874695 269.873474,275.710999 273.053375,275.430237 
	C271.494751,279.804871 274.297760,280.495209 277.600311,281.492828 
	C294.563782,286.617065 311.909210,289.222778 329.568970,289.966187 
	C331.201416,290.034882 332.845001,289.839325 334.863983,289.749512 
	C334.541321,287.536072 334.266785,285.652863 334.016479,283.389008 
	C335.769562,285.264130 337.498413,287.519928 339.876160,290.622467 
	C321.829132,291.703918 304.995941,291.007538 288.544434,286.816193 
	C272.474487,282.722137 256.902679,277.069061 243.333694,268.548370 
	C241.077469,281.116028 238.871231,293.405212 236.340942,305.898041 
z"/>
<path fill="#2861E0" opacity="1.000000" stroke="none" 
	d="
M104.012253,207.985992 
	C103.451599,213.910889 102.334030,219.847351 102.456963,225.758026 
	C102.656067,235.331451 103.481789,244.906342 104.416565,254.443985 
	C104.900368,259.380188 105.534561,264.480286 107.245010,269.080933 
	C110.967865,279.094421 112.897476,289.548340 117.849991,299.400421 
	C122.954941,309.555664 128.283569,319.416748 134.506134,328.872681 
	C134.925293,329.509674 134.852814,330.470123 134.989182,331.659973 
	C131.297241,326.981171 127.164490,322.189758 124.044464,316.810883 
	C116.475174,303.761566 110.137299,290.076416 106.795746,275.289978 
	C104.758041,266.273102 103.277802,257.092590 102.195953,247.909149 
	C101.311302,240.399643 101.071526,232.774033 101.142578,225.205505 
	C101.194092,219.718735 102.221626,214.241119 103.208153,208.375153 
	C103.602364,207.990875 104.012253,207.985992 104.012253,207.985992 
z"/>
<path fill="#2861E0" opacity="1.000000" stroke="none" 
	d="
M149.056137,199.123428 
	C150.698914,193.927124 152.149078,188.658966 154.051712,183.559616 
	C155.333557,180.124054 157.003448,176.772110 158.930298,173.648331 
	C171.101288,153.916672 186.404282,137.208847 206.537552,125.329361 
	C208.141296,124.383080 210.317154,124.406387 212.636871,124.008324 
	C208.390060,127.183510 203.814117,130.457581 199.059906,133.448288 
	C189.716248,139.326050 181.972626,146.897888 174.843491,155.248764 
	C166.717056,164.767838 160.354248,175.309219 155.665588,186.866745 
	C153.833572,191.382675 152.364166,196.045700 150.234497,200.625687 
	C149.511642,200.114227 149.283890,199.618835 149.056137,199.123428 
z"/>
<path fill="#205FE7" opacity="1.000000" stroke="none" 
	d="
M148.843781,199.449860 
	C149.283890,199.618835 149.511642,200.114227 149.921570,200.817688 
	C149.059433,214.440964 146.986755,227.876022 147.244919,241.266144 
	C147.533127,256.214172 150.752014,270.892761 158.591614,284.105652 
	C159.311615,285.319183 159.524338,286.833710 160.003754,288.585266 
	C158.371353,286.792725 156.127579,284.858490 155.137741,282.416107 
	C148.357956,265.687164 144.384140,248.273727 144.186005,230.195129 
	C144.123108,224.456619 145.482986,218.690582 146.331680,212.957870 
	C146.984634,208.547180 147.856766,204.168945 148.843781,199.449860 
z"/>
<path fill="#2560E5" opacity="1.000000" stroke="none" 
	d="
M364.812561,230.775879 
	C362.428375,226.113113 359.002594,221.261292 358.052979,215.965485 
	C356.037872,204.727295 355.271088,193.262085 354.105042,181.878448 
	C353.939636,180.263855 354.104919,178.480301 354.637360,176.956757 
	C355.840515,173.514175 355.406921,170.484039 353.071777,167.330505 
	C358.811340,167.433289 357.645538,171.160736 357.037415,175.040237 
	C354.023956,194.264679 358.093353,212.529282 364.812561,230.775879 
z"/>
<path fill="#2A63E5" opacity="1.000000" stroke="none" 
	d="
M104.151169,207.636688 
	C104.012253,207.985992 103.602364,207.990875 103.397423,207.993408 
	C105.936279,196.676529 108.138847,185.187408 111.616142,174.098007 
	C113.894875,166.830902 118.017654,160.142029 121.647003,153.074585 
	C120.566269,156.952637 119.054161,160.918518 117.757751,164.953690 
	C113.228302,179.051987 108.773346,193.174240 104.151169,207.636688 
z"/>
<path fill="#2861E0" opacity="1.000000" stroke="none" 
	d="
M182.073273,374.355591 
	C183.406342,374.338684 185.114578,374.265167 186.240326,375.039001 
	C192.415359,379.283813 193.160645,379.395020 199.271942,371.971771 
	C204.944962,365.080963 209.930420,357.625854 215.275513,350.461639 
	C216.154251,349.283875 217.326050,348.324799 218.674500,347.158112 
	C214.432190,354.082855 210.146667,361.309509 205.230225,368.077850 
	C201.869522,372.704437 197.628952,376.691925 193.443481,381.340851 
	C189.556671,379.045929 185.868103,376.868042 182.073273,374.355591 
z"/>
<path fill="#2A63E5" opacity="1.000000" stroke="none" 
	d="
M207.617889,77.975357 
	C204.072388,80.251350 200.136978,82.582497 196.193253,84.899498 
	C188.100601,89.654060 180.023651,94.435921 171.893616,99.125740 
	C169.944305,100.250191 167.812378,101.058113 165.379364,101.993088 
	C172.702637,96.659637 180.143021,90.885162 188.208374,86.182579 
	C194.122162,82.734482 200.855881,80.692673 207.617889,77.975357 
z"/>
<path fill="#195CEA" opacity="1.000000" stroke="none" 
	d="
M224.006744,336.006134 
	C225.498077,332.178070 226.960297,328.338318 228.489075,324.525269 
	C229.959579,320.857513 231.995590,317.343872 228.772141,313.402008 
	C228.085144,312.561951 228.845428,310.538330 230.022598,308.904999 
	C230.623550,309.938660 231.224503,310.972290 232.104172,312.485352 
	C233.293137,310.552124 234.273560,308.957977 235.535553,307.210327 
	C232.455933,316.613556 229.094711,326.170349 225.140335,335.871094 
	C224.367035,336.012085 224.186890,336.009094 224.006744,336.006134 
z"/>
<path fill="#2A63E5" opacity="1.000000" stroke="none" 
	d="
M142.607315,122.975082 
	C141.472595,125.429390 140.076706,127.961723 138.467239,130.350128 
	C133.977905,137.012238 129.414169,143.624451 124.841003,150.229507 
	C124.200783,151.154175 123.342918,151.928162 122.266350,152.880783 
	C124.206627,148.616989 126.036812,143.944824 128.827438,139.942291 
	C132.942322,134.040451 137.741165,128.615509 142.607315,122.975082 
z"/>
<path fill="#2A63E5" opacity="1.000000" stroke="none" 
	d="
M164.616547,102.010864 
	C163.568314,103.878647 162.402878,106.026268 160.707214,107.604050 
	C155.124817,112.798370 149.350388,117.786301 143.305267,122.912300 
	C147.670425,117.771667 152.261383,112.457016 157.146072,107.427650 
	C159.195847,105.317177 161.867523,103.810753 164.616547,102.010864 
z"/>
<path fill="#2861E0" opacity="1.000000" stroke="none" 
	d="
M213.411102,124.026512 
	C215.598877,122.361778 217.964310,120.013260 220.794586,119.090607 
	C230.367218,115.969955 239.652695,111.439728 250.567841,112.244736 
	C251.004318,112.450150 250.977768,112.837730 250.977768,112.837738 
	C240.665115,115.738022 230.342072,118.602234 220.048309,121.568092 
	C217.910416,122.184067 215.881104,123.176949 213.411102,124.026512 
z"/>
<path fill="#2861E0" opacity="1.000000" stroke="none" 
	d="
M134.967041,332.384125 
	C136.008347,332.417694 137.373032,332.515198 138.067535,333.247925 
	C143.141373,338.600800 148.109985,344.055023 153.024414,349.555328 
	C153.621674,350.223785 153.698563,351.357208 153.985535,352.644379 
	C148.701233,347.849243 143.393433,342.738525 138.232498,337.483521 
	C136.910141,336.137024 136.051727,334.334930 134.967041,332.384125 
z"/>
<path fill="#275AC9" opacity="1.000000" stroke="none" 
	d="
M251.439484,112.912025 
	C250.977768,112.837730 251.004318,112.450150 251.018494,112.256912 
	C258.766357,111.481934 266.503906,110.428345 274.232269,110.491920 
	C279.020569,110.531303 283.794952,112.267311 288.780579,113.543411 
	C276.624115,113.558838 264.262634,113.272575 251.439484,112.912025 
z"/>
<path fill="#2861E0" opacity="1.000000" stroke="none" 
	d="
M153.987839,353.402222 
	C158.260315,355.924866 162.656418,358.653717 166.781509,361.744263 
	C169.355728,363.672882 171.520920,366.147430 173.931183,368.714233 
	C169.259109,365.804504 164.447144,362.664001 159.826736,359.263275 
	C157.690765,357.691101 155.928604,355.611084 153.987839,353.402222 
z"/>
<path fill="#2761E3" opacity="1.000000" stroke="none" 
	d="
M411.988861,154.631134 
	C408.350830,149.946136 404.577209,144.966904 401.043945,139.822586 
	C398.829834,136.598877 396.977173,133.126907 394.966370,129.387146 
	C400.631897,137.427673 406.293365,145.847366 411.988861,154.631134 
z"/>
<path fill="#195CEA" opacity="1.000000" stroke="none" 
	d="
M300.913910,243.718475 
	C290.934998,243.443466 281.808502,239.999451 273.198730,234.209351 
	C279.411316,236.193741 285.803040,238.497986 292.220734,240.727493 
	C295.044922,241.708618 297.921906,242.537598 300.913910,243.718475 
z"/>
<path fill="#2761E3" opacity="1.000000" stroke="none" 
	d="
M426.034790,191.539978 
	C420.434387,186.005249 420.538696,178.148972 419.027435,170.420700 
	C421.366058,177.045822 423.691254,184.085922 426.034790,191.539978 
z"/>
<path fill="#195CEA" opacity="1.000000" stroke="none" 
	d="
M329.978455,276.630371 
	C323.804535,270.737335 320.167877,263.099884 317.992249,254.275909 
	C321.984344,261.335754 325.972076,268.798431 329.978455,276.630371 
z"/>
<path fill="#2761E3" opacity="1.000000" stroke="none" 
	d="
M418.994202,169.580902 
	C415.421967,165.852219 410.542480,162.391678 411.981079,155.390411 
	C414.334045,159.722015 416.659454,164.462418 418.994202,169.580902 
z"/>
<path fill="#205FE7" opacity="1.000000" stroke="none" 
	d="
M342.908875,85.722198 
	C337.397461,87.663986 333.577362,84.719734 329.979187,80.527390 
	C334.125427,81.954361 338.439484,83.669395 342.908875,85.722198 
z"/>
<path fill="#2560E5" opacity="1.000000" stroke="none" 
	d="
M388.923828,265.654205 
	C383.677948,264.520081 379.906769,261.526245 379.038635,255.326492 
	C382.302155,258.407013 385.559509,261.871185 388.923828,265.654205 
z"/>
<path fill="#2761E3" opacity="1.000000" stroke="none" 
	d="
M388.914185,121.657120 
	C383.531647,120.499252 380.339233,116.573853 378.027283,111.340744 
	C381.617859,114.433228 385.215820,117.884888 388.914185,121.657120 
z"/>
<path fill="#2560E5" opacity="1.000000" stroke="none" 
	d="
M404.907745,278.677277 
	C400.317047,278.516785 396.415436,276.868530 394.747375,271.535095 
	C398.025635,273.575104 401.405426,275.962463 404.907745,278.677277 
z"/>
<path fill="#205FE7" opacity="1.000000" stroke="none" 
	d="
M328.936401,79.693169 
	C324.505249,78.618752 319.918304,77.200974 315.138092,75.493271 
	C319.556732,76.585503 324.168671,77.967659 328.936401,79.693169 
z"/>
<path fill="#2761E3" opacity="1.000000" stroke="none" 
	d="
M361.888824,97.696121 
	C359.067383,96.229942 356.105896,94.444801 353.062103,92.325653 
	C355.902802,93.786819 358.825775,95.581985 361.888824,97.696121 
z"/>
<path fill="#2560E5" opacity="1.000000" stroke="none" 
	d="
M410.928772,282.723206 
	C409.497925,283.970551 407.924011,284.903900 406.144531,285.959167 
	C406.144531,283.639648 406.144531,282.059113 406.071930,280.219604 
	C407.594788,280.776825 409.190247,281.593018 410.928772,282.723206 
z"/>
<path fill="#2861E0" opacity="1.000000" stroke="none" 
	d="
M174.081909,369.338898 
	C176.577805,370.461029 179.201462,371.907410 181.904846,373.696289 
	C179.392944,372.580261 176.801315,371.121704 174.081909,369.338898 
z"/>
<path fill="#195CEA" opacity="1.000000" stroke="none" 
	d="
M314.844299,246.640076 
	C312.089386,246.591705 309.183105,246.174866 306.101624,245.481400 
	C308.848602,245.560379 311.770752,245.915985 314.844299,246.640076 
z"/>
<path fill="#195CEA" opacity="1.000000" stroke="none" 
	d="
M244.881653,213.670166 
	C242.676392,211.876495 240.366455,209.766998 238.039413,207.298950 
	C240.273865,209.078384 242.525421,211.216354 244.881653,213.670166 
z"/>
<path fill="#195CEA" opacity="1.000000" stroke="none" 
	d="
M272.919922,233.642105 
	C270.435364,232.529892 267.807831,231.098862 265.106628,229.329971 
	C267.614288,230.435837 270.195618,231.879562 272.919922,233.642105 
z"/>
<path fill="#2761E3" opacity="1.000000" stroke="none" 
	d="
M352.862366,91.701462 
	C349.614594,93.093597 347.517639,91.617142 346.127686,88.243774 
	C348.258820,89.076622 350.486633,90.229195 352.862366,91.701462 
z"/>
<path fill="#2761E3" opacity="1.000000" stroke="none" 
	d="
M368.822815,102.738312 
	C365.868591,102.881676 362.911072,102.473656 362.020905,98.340332 
	C364.210663,99.461884 366.437347,100.948555 368.822815,102.738312 
z"/>
<path fill="#2861E0" opacity="1.000000" stroke="none" 
	d="
M219.380447,346.850891 
	C220.500198,344.047150 221.937073,341.117554 223.705154,338.096375 
	C222.590118,340.911591 221.143845,343.818329 219.380447,346.850891 
z"/>
<path fill="#2A63E5" opacity="1.000000" stroke="none" 
	d="
M216.582077,74.978615 
	C214.243103,75.973763 211.506378,76.992043 208.356293,78.000946 
	C210.690063,76.994957 213.437180,75.998360 216.582077,74.978615 
z"/>
<path fill="#195CEA" opacity="1.000000" stroke="none" 
	d="
M333.874023,282.643524 
	C330.490326,282.917084 329.988647,280.548157 329.992371,277.398376 
	C331.252625,278.777008 332.505188,280.550781 333.874023,282.643524 
z"/>
<path fill="#2560E5" opacity="1.000000" stroke="none" 
	d="
M371.921631,244.722534 
	C368.251984,244.488113 368.467743,241.344894 367.942871,238.269073 
	C369.222900,240.039505 370.509613,242.213577 371.921631,244.722534 
z"/>
<path fill="#195CEA" opacity="1.000000" stroke="none" 
	d="
M317.796967,252.843597 
	C314.373413,252.603210 314.582214,250.171066 314.953308,247.339691 
	C315.946045,248.827286 316.900635,250.650818 317.796967,252.843597 
z"/>
<path fill="#2560E5" opacity="1.000000" stroke="none" 
	d="
M352.839447,166.704697 
	C350.822784,166.202957 348.642426,165.384933 346.290039,164.271210 
	C348.303925,164.779831 350.489838,165.584122 352.839447,166.704697 
z"/>
<path fill="#205FE7" opacity="1.000000" stroke="none" 
	d="
M170.000702,304.640503 
	C168.697311,303.198761 167.352615,301.404785 165.984222,299.235901 
	C167.293472,300.670105 168.626434,302.479218 170.000702,304.640503 
z"/>
<path fill="#205FE7" opacity="1.000000" stroke="none" 
	d="
M172.990845,308.667969 
	C172.029465,307.902771 171.030243,306.800476 170.020416,305.330658 
	C170.990875,306.085693 171.971939,307.208313 172.990845,308.667969 
z"/>
<path fill="#205FE7" opacity="1.000000" stroke="none" 
	d="
M176.907440,312.678040 
	C175.692535,311.886902 174.374283,310.790833 173.024902,309.333923 
	C174.263870,310.106445 175.533966,311.239807 176.907440,312.678040 
z"/>
<path fill="#195CEA" opacity="1.000000" stroke="none" 
	d="
M264.896912,228.634064 
	C263.414429,228.194962 261.824860,227.427872 260.117889,226.342285 
	C261.596924,226.784561 263.193359,227.545334 264.896912,228.634064 
z"/>
<path fill="#2560E5" opacity="1.000000" stroke="none" 
	d="
M415.982819,285.558472 
	C414.689819,285.237274 413.408875,284.544983 411.987427,283.550140 
	C413.229614,283.894196 414.612244,284.540802 415.982819,285.558472 
z"/>
<path fill="#2560E5" opacity="1.000000" stroke="none" 
	d="
M379.068695,254.625916 
	C378.060425,253.870682 377.051025,252.772125 376.038147,251.320312 
	C377.045685,252.072250 378.056610,253.177429 379.068695,254.625916 
z"/>
<path fill="#205FE7" opacity="1.000000" stroke="none" 
	d="
M161.983337,292.668274 
	C161.347031,291.904236 160.677704,290.795959 160.028503,289.331116 
	C160.682510,290.091064 161.316406,291.207550 161.983337,292.668274 
z"/>
<path fill="#2560E5" opacity="1.000000" stroke="none" 
	d="
M345.882324,163.605621 
	C344.783600,163.471161 343.531982,163.039215 342.132629,162.296204 
	C343.233093,162.426117 344.481232,162.867126 345.882324,163.605621 
z"/>
<path fill="#2560E5" opacity="1.000000" stroke="none" 
	d="
M341.848328,161.701111 
	C340.523315,161.471329 339.028381,160.930954 337.291351,160.149261 
	C338.592285,160.402161 340.135345,160.896332 341.848328,161.701111 
z"/>
<path fill="#195CEA" opacity="1.000000" stroke="none" 
	d="
M256.877808,223.671249 
	C256.063293,223.505600 255.156982,223.028046 254.131500,222.247375 
	C254.936874,222.415955 255.861435,222.887650 256.877808,223.671249 
z"/>
<path fill="#2761E3" opacity="1.000000" stroke="none" 
	d="
M374.878540,107.694733 
	C374.070221,107.524429 373.153412,107.043022 372.124084,106.254135 
	C372.931091,106.425636 373.850525,106.904633 374.878540,107.694733 
z"/>
<path fill="#195CEA" opacity="1.000000" stroke="none" 
	d="
M237.015549,205.660965 
	C236.328583,205.290375 235.631165,204.561218 234.852661,203.520706 
	C235.516083,203.907028 236.260590,204.604706 237.015549,205.660965 
z"/>
<path fill="#195CEA" opacity="1.000000" stroke="none" 
	d="
M252.877441,220.715637 
	C252.091400,220.524673 251.175323,220.039017 250.135483,219.250183 
	C250.923615,219.438324 251.835510,219.929642 252.877441,220.715637 
z"/>
<path fill="#195CEA" opacity="1.000000" stroke="none" 
	d="
M259.876923,225.700073 
	C259.063538,225.549286 258.149078,225.096100 257.127502,224.340866 
	C257.938873,224.491760 258.857361,224.944702 259.876923,225.700073 
z"/>
<path fill="#2560E5" opacity="1.000000" stroke="none" 
	d="
M367.702026,236.737213 
	C367.124054,236.210922 366.548065,235.350449 365.961365,234.158752 
	C366.535095,234.686020 367.119568,235.544525 367.702026,236.737213 
z"/>
<path fill="#195CEA" opacity="1.000000" stroke="none" 
	d="
M304.941040,244.704559 
	C304.546295,244.831985 304.017731,244.673782 303.255890,244.365219 
	C303.617493,244.282883 304.212311,244.350922 304.941040,244.704559 
z"/>
<path fill="#2861E0" opacity="1.000000" stroke="none" 
	d="
M223.993378,336.343140 
	C224.186890,336.009094 224.367035,336.012085 224.816925,336.027649 
	C224.923828,336.631012 224.760971,337.221741 224.305573,337.920654 
	C224.002029,337.579254 223.991013,337.129700 223.993378,336.343140 
z"/>
<path fill="#205FE7" opacity="1.000000" stroke="none" 
	d="
M346.017151,87.705475 
	C345.742188,87.864388 345.477692,87.673500 345.154480,87.185364 
	C345.349640,87.122543 345.660278,87.278404 346.017151,87.705475 
z"/>
<path fill="#2761E3" opacity="1.000000" stroke="none" 
	d="
M369.950012,103.758301 
	C369.718140,103.890259 369.452515,103.702148 369.102844,103.237762 
	C369.268982,103.189529 369.568146,103.348442 369.950012,103.758301 
z"/>
<path fill="#2761E3" opacity="1.000000" stroke="none" 
	d="
M370.969666,104.741745 
	C370.778503,104.801239 370.511505,104.602051 370.116333,104.185722 
	C370.290009,104.140068 370.591919,104.311562 370.969666,104.741745 
z"/>
<path fill="#205FE7" opacity="1.000000" stroke="none" 
	d="
M344.931549,86.691864 
	C344.701080,86.914673 344.411591,86.793617 343.985718,86.423340 
	C344.156586,86.312965 344.497650,86.370918 344.931549,86.691864 
z"/>
<path fill="#2761E3" opacity="1.000000" stroke="none" 
	d="
M371.984802,105.732140 
	C371.785034,105.796242 371.517090,105.595879 371.123535,105.175293 
	C371.304169,105.125946 371.610382,105.296814 371.984802,105.732140 
z"/>
<path fill="#2560E5" opacity="1.000000" stroke="none" 
	d="
M373.927002,247.776489 
	C373.711487,247.881424 373.453766,247.682037 373.107025,247.216888 
	C373.260620,247.184631 373.549561,247.358307 373.927002,247.776489 
z"/>
<path fill="#205FE7" opacity="1.000000" stroke="none" 
	d="
M177.800980,313.866638 
	C177.517685,313.931061 177.325714,313.691406 177.094696,313.202087 
	C177.291672,313.190155 177.570541,313.393524 177.800980,313.866638 
z"/>
<path fill="#2560E5" opacity="1.000000" stroke="none" 
	d="
M365.821594,232.927994 
	C365.554932,232.954086 365.340790,232.677490 365.041565,232.151016 
	C365.262329,232.142517 365.568237,232.383911 365.821594,232.927994 
z"/>
<path fill="#2761E3" opacity="1.000000" stroke="none" 
	d="
M375.930786,108.740936 
	C375.678986,108.898064 375.415466,108.719589 375.106384,108.232330 
	C375.284729,108.175919 375.570770,108.336510 375.930786,108.740936 
z"/>
<path fill="#2761E3" opacity="1.000000" stroke="none" 
	d="
M376.967407,109.727966 
	C376.700348,109.890434 376.435089,109.706657 376.123291,109.213760 
	C376.312683,109.152496 376.610168,109.311523 376.967407,109.727966 
z"/>
<path fill="#2761E3" opacity="1.000000" stroke="none" 
	d="
M377.964844,110.729111 
	C377.694275,110.888153 377.429749,110.698380 377.121887,110.195816 
	C377.311676,110.138443 377.609100,110.304199 377.964844,110.729111 
z"/>
<path fill="#2761E3" opacity="1.000000" stroke="none" 
	d="
M389.946594,122.745041 
	C389.687805,122.893890 389.425476,122.704399 389.121246,122.204811 
	C389.304016,122.152939 389.591919,122.323608 389.946594,122.745041 
z"/>
<path fill="#205FE7" opacity="1.000000" stroke="none" 
	d="
M164.805206,296.862488 
	C164.516403,296.932434 164.310455,296.683960 164.057831,296.173065 
	C164.258057,296.159424 164.550354,296.370575 164.805206,296.862488 
z"/>
<path fill="#205FE7" opacity="1.000000" stroke="none" 
	d="
M162.955292,293.771973 
	C162.765869,293.825775 162.506790,293.618469 162.116669,293.197571 
	C162.285645,293.159637 162.585648,293.335236 162.955292,293.771973 
z"/>
<path fill="#195CEA" opacity="1.000000" stroke="none" 
	d="
M253.975983,221.741028 
	C253.764679,221.840179 253.505768,221.638870 253.135284,221.193222 
	C253.289200,221.159195 253.590744,221.323105 253.975983,221.741028 
z"/>
<path fill="#2761E3" opacity="1.000000" stroke="none" 
	d="
M390.945801,123.739227 
	C390.692535,123.883247 390.431396,123.693489 390.116882,123.204361 
	C390.295532,123.153549 390.587036,123.320366 390.945801,123.739227 
z"/>
<path fill="#2761E3" opacity="1.000000" stroke="none" 
	d="
M391.943420,124.718407 
	C391.682312,124.885384 391.416595,124.706795 391.113281,124.207710 
	C391.296478,124.148643 391.584198,124.310516 391.943420,124.718407 
z"/>
<path fill="#2761E3" opacity="1.000000" stroke="none" 
	d="
M392.904999,126.039963 
	C392.628204,126.074814 392.401947,125.792564 392.107330,125.247047 
	C392.344513,125.230148 392.649994,125.476509 392.904999,126.039963 
z"/>
<path fill="#2761E3" opacity="1.000000" stroke="none" 
	d="
M393.973022,127.732895 
	C393.773743,127.772377 393.502441,127.535934 393.105469,127.057068 
	C393.286896,127.028755 393.593964,127.242867 393.973022,127.732895 
z"/>
<path fill="#2761E3" opacity="1.000000" stroke="none" 
	d="
M394.929871,128.762558 
	C394.675323,128.881729 394.423065,128.672043 394.112122,128.174316 
	C394.290070,128.136429 394.582947,128.318924 394.929871,128.762558 
z"/>
<path fill="#2560E5" opacity="1.000000" stroke="none" 
	d="
M374.813324,248.773209 
	C374.549713,248.844955 374.352905,248.626862 374.082275,248.186935 
	C374.269653,248.164383 374.560211,248.337143 374.813324,248.773209 
z"/>
<path fill="#2560E5" opacity="1.000000" stroke="none" 
	d="
M405.960907,279.751465 
	C405.784851,279.797211 405.525635,279.589874 405.128815,279.173340 
	C405.286743,279.142181 405.582245,279.320282 405.960907,279.751465 
z"/>
<path fill="#195CEA" opacity="1.000000" stroke="none" 
	d="
M245.936203,214.761383 
	C245.722000,214.865875 245.472504,214.672638 245.142090,214.219543 
	C245.296326,214.185455 245.576218,214.353470 245.936203,214.761383 
z"/>
<path fill="#195CEA" opacity="1.000000" stroke="none" 
	d="
M246.970520,215.754395 
	C246.759293,215.849472 246.501617,215.644363 246.140106,215.187698 
	C246.293579,215.157349 246.589523,215.330032 246.970520,215.754395 
z"/>
<path fill="#195CEA" opacity="1.000000" stroke="none" 
	d="
M249.971741,218.744110 
	C249.800858,218.782791 249.543289,218.567902 249.142822,218.144531 
	C249.294968,218.120880 249.590012,218.305710 249.971741,218.744110 
z"/>
<path fill="#2560E5" opacity="1.000000" stroke="none" 
	d="
M394.045349,270.764038 
	C393.868591,270.816650 393.581116,270.614288 393.150940,270.187988 
	C393.317078,270.145721 393.625854,270.327393 394.045349,270.764038 
z"/>
<path fill="#2560E5" opacity="1.000000" stroke="none" 
	d="
M392.973755,269.727692 
	C392.715363,269.874786 392.451996,269.683350 392.127563,269.196594 
	C392.310242,269.142334 392.610992,269.304993 392.973755,269.727692 
z"/>
<path fill="#2560E5" opacity="1.000000" stroke="none" 
	d="
M391.941528,268.739746 
	C391.700928,268.883270 391.436432,268.698730 391.098572,268.227051 
	C391.268066,268.175476 391.565521,268.332733 391.941528,268.739746 
z"/>
<path fill="#2560E5" opacity="1.000000" stroke="none" 
	d="
M389.937744,266.764221 
	C389.687378,266.880707 389.435822,266.673584 389.124817,266.182739 
	C389.302734,266.143951 389.593109,266.324493 389.937744,266.764221 
z"/>
<path fill="#2560E5" opacity="1.000000" stroke="none" 
	d="
M375.964874,250.721497 
	C375.770691,250.776596 375.503326,250.568527 375.106567,250.137894 
	C375.282043,250.096329 375.586853,250.277313 375.964874,250.721497 
z"/>
<path fill="#1259FE" opacity="1.000000" stroke="none" 
	d="
M172.003052,149.002640 
	C170.938721,150.754089 169.874405,152.505539 168.810089,154.256989 
	C166.597107,150.700455 167.465515,148.997955 171.602692,149.003754 
	C172.000000,149.000000 172.003052,149.002640 172.003052,149.002640 
z"/>
<path fill="#195CEA" opacity="1.000000" stroke="none" 
	d="
M291.303528,282.648590 
	C290.345764,282.323975 289.648163,281.902527 288.950592,281.481110 
	C289.436462,281.127594 289.922363,280.774078 290.408264,280.420563 
	C290.793427,281.130981 291.178589,281.841370 291.303528,282.648590 
z"/>
<path fill="#1259FE" opacity="1.000000" stroke="none" 
	d="
M171.998672,148.998474 
	C172.512360,147.914032 173.027374,146.831116 173.542389,145.748215 
	C173.944962,146.018478 174.347549,146.288742 174.750122,146.559021 
	C174.035431,147.316147 173.320724,148.073257 172.304535,148.916504 
	C172.003052,149.002640 172.000000,149.000000 171.998672,148.998474 
z"/>
<path fill="#2A63E5" opacity="1.000000" stroke="none" 
	d="
M125.410774,155.384094 
	C125.578041,154.835922 125.815453,154.485077 126.052856,154.134216 
	C126.243011,154.367676 126.433167,154.601120 126.623322,154.834564 
	C126.242523,155.083496 125.861717,155.332443 125.410774,155.384094 
z"/>
<path fill="#205FE7" opacity="1.000000" stroke="none" 
	d="
M168.296204,310.081451 
	C168.232071,310.477325 168.045151,310.758759 167.858246,311.040222 
	C167.757477,310.948303 167.558914,310.791687 167.570526,310.774170 
	C167.755615,310.494629 167.967575,310.232849 168.296204,310.081451 
z"/>
<path fill="#2861E0" opacity="1.000000" stroke="none" 
	d="
M188.219696,372.036072 
	C188.098679,372.148743 187.982132,372.171692 187.865601,372.194672 
	C187.985123,372.111877 188.104660,372.029083 188.219696,372.036072 
z"/>
<path fill="#195CEA" opacity="1.000000" stroke="none" 
	d="
M234.859955,292.805969 
	C235.039719,292.813599 235.147125,292.885864 235.254517,292.958160 
	C235.098877,292.928986 234.943237,292.899811 234.859955,292.805969 
z"/>
<path fill="#195CEA" opacity="1.000000" stroke="none" 
	d="
M226.315308,319.580658 
	C226.377747,319.416351 226.465485,319.339630 226.553192,319.262939 
	C226.482315,319.398041 226.411453,319.533142 226.315308,319.580658 
z"/>
</svg>